<svg xmlns="http://www.w3.org/2000/svg" viewBox="0 0 1600 900" preserveAspectRatio="xMidYMid slice">
  <defs>
    <linearGradient id="bg" x1="0" y1="0" x2="1" y2="1">
      <stop offset="0" stop-color="#161e14"/>
      <stop offset="0.55" stop-color="#26351d"/>
      <stop offset="1" stop-color="#0b0f09"/>
    </linearGradient>
    <radialGradient id="glow" cx="0.5" cy="0.45" r="0.55">
      <stop offset="0" stop-color="#7fb069" stop-opacity="0.25"/>
      <stop offset="1" stop-color="#7fb069" stop-opacity="0"/>
    </radialGradient>
  </defs>
  <rect width="1600" height="900" fill="url(#bg)"/>
  <rect width="1600" height="900" fill="url(#glow)"/>
  <g fill="#7fb069" fill-opacity="0.6">
    <circle cx="800" cy="430" r="90"/>
    <circle cx="800" cy="430" r="62" fill="none" stroke="#7fb069" stroke-width="2"/>
  </g>
  <g stroke="#e7eef2" stroke-opacity="0.32" stroke-width="1.4">
    <path d="M800 340v180M710 430h180M728 368l144 124M872 368L728 492"/>
  </g>
  <g fill="#f2c14e" fill-opacity="0.8">
    <rect x="330" y="300" width="130" height="60" rx="8"/>
    <rect x="1140" y="300" width="130" height="60" rx="8"/>
    <rect x="330" y="520" width="130" height="60" rx="8"/>
    <rect x="1140" y="520" width="130" height="60" rx="8"/>
  </g>
  <g stroke="#f2c14e" stroke-opacity="0.5" stroke-width="1.6">
    <path d="M460 330h250M890 330h250M460 550h250M890 550h250"/>
  </g>
  <g fill="#7fb069" fill-opacity="0.85">
    <circle cx="520" cy="430" r="5"/>
    <circle cx="1080" cy="430" r="5"/>
    <circle cx="800" cy="650" r="5"/>
    <circle cx="800" cy="220" r="5"/>
  </g>
  <text x="80" y="110" fill="#e7eef2" font-size="46" font-family="Georgia, serif" font-weight="700" opacity="0.9">VII</text>
  <text x="80" y="150" fill="#9fb3c8" font-size="18" font-family="Verdana, sans-serif" letter-spacing="4">STAY</text>
</svg>
